<svg xmlns="http://www.w3.org/2000/svg" xmlns:xlink="http://www.w3.org/1999/xlink" version="1.1" x="0px" y="0px" viewBox="0 0 50 50" style="enable-background:new 0 0 50 50;" xml:space="preserve">
<style type="text/css">
	.st0{display:none;}
	.st1{display:inline;}
	.st2{fill:none;stroke:#FFFFFF;stroke-width:2;stroke-miterlimit:10;}
	.st3{fill:none;stroke:#59C3BA;stroke-width:2;stroke-miterlimit:10;}
</style>
<g id="pan">
	<g>
		<path class="st2" d="M21,25.6V8.8c0-1.9-0.9-3.1-3.3-3.1s-3.3,1.2-3.3,3.1v24.9"/>
		<path class="st2" d="M33.1,28.3v-6c0-2.6-0.6-4.2-2.9-4.4c-1.9-0.2-2.9,0.6-2.9,0.6"/>
		<path class="st2" d="M33.1,21.2c3.3-0.6,4.4,1.3,4.6,4.2S38,30,38,33.7c0,8.9-4.9,14.1-4.9,14.1"/>
		<path class="st2" d="M14.1,23.3C13.7,23.1,12.7,23,12,23c-1.7,0-2.9,1.3-3.2,3.7c0,0-0.3,2.4-0.4,5.7c-0.1,4.2,0.7,6,2.3,8.4    c2.3,3.3,7,7,7,7"/>
		<path class="st2" d="M27.7,26.2v-5.6c0-2.6-0.7-4.9-3.3-4.9c-2.2,0-3.3,0.6-3.3,0.6"/>
		<g>
			<line class="st3" x1="28.9" y1="5.4" x2="41.6" y2="5.4"/>
			<polyline class="st3" points="30.9,8 28.3,5.4 30.9,2.8    "/>
			<polyline class="st3" points="39.6,2.8 42.2,5.4 39.6,8    "/>
		</g>
	</g>
</g>
</svg>